<svg xmlns="http://www.w3.org/2000/svg" viewBox="0 0 512 512"><defs><style>.cls-1{fill:#54459c;}.cls-2{fill:#fefbdb;}.cls-3{fill:#adc1e4;}.cls-4{fill:#fabbb2;}.cls-5{fill:#231f20;}.cls-6{fill:#fec65f;}.cls-7{fill:#fff;}.cls-8{fill:none;stroke:#231f20;stroke-linecap:round;stroke-miterlimit:10;stroke-width:5px;}</style></defs><title>cooky_icon</title><g id="Layer_2" data-name="Layer 2"><g id="Layer_1-2" data-name="Layer 1"><rect class="cls-1" width="512" height="512" rx="125.56" ry="125.56"/><path class="cls-2" d="M94.63,434.47a638.7,638.7,0,0,1,99.45,1.32c8.11.75,16.18,1.69,24.26,2.7l-2.2-.29,3.5.47c3.38.45,6.77.92,10.16,1.35s7,.89,10.58,1.23c16.47,1.58,34,1,49.55-5.08,9.52-3.74,16.47-10.11,17.91-20.78,1.21-9-3-20.83-11.94-24.91a637.65,637.65,0,0,0-92.83-34.24c-16.95-4.72-34-8.64-51.57-10.31s-34.85,1.21-52,4.48C86.58,352.86,78.07,369,82,381.17,86.5,395.08,98.9,401,112.75,398.63c4.33-.75,8.66-1.41,13-2.09,5.31-.82-5,.58.81-.12,1.87-.22,3.74-.46,5.61-.67q11.69-1.33,23.43-2.05a446.08,446.08,0,0,1,48-.31q11.74.56,23.45,1.74c4,.4,8.21.58,12.15,1.38-6.64-1.35-.4,0,.81.13,1.87.27,3.73.56,5.58.85a447.94,447.94,0,0,1,47.8,10.33,25,25,0,0,0,19.26-45.7c-24.35-14.46-51.84-22.05-79.66-26.19-15-2.24-30.17-3.88-45.3-5.41-6.47-.66-12.93-1.31-19.39-2-3.36-.38-6.71-.77-10.07-1.2l-2.5-.32c3.59.48,4.41.59,2.48.32s-3.87-.56-5.81-.86l-6.64,49.11c29.51-3.44,59.05-6.88,88.75-8.27,14.49-.68,29-.88,43.51-.31,3.23.13,6.46.3,9.67.61,1.16.11,5.48-.27,1.51.13s.17.1,1.45.36c2.94.6,6.25,2.35,9.17,2.62l-3.08-1.29c.95.44,1.88.92,2.8,1.43,1.44.81,5.57,3.82.17-.37,5.23,4.06,10.63,7.64,17.68,7.32a25.79,25.79,0,0,0,15.14-5.36c8.91-6.89,14-22.28,6.44-32.25s-16.06-18.36-27.3-24a131.3,131.3,0,0,0-31.55-11c-22-4.77-44.15-8-65.95-13.72l-6.65,49.11L284.2,346c12.27.87,24.56,1.63,36.82,2.73,2.82.26,5.64.53,8.45.85,1.57.17,3.12.37,4.69.56,3.21.37-5-.83-.11,0,6.2,1.08,12.34,2.19,18.45,3.74,10.36,2.63,23-1.64,28.23-11.49,5.52-10.43,3.58-21.46-3.9-30.3-14.13-16.67-33.77-28.89-54.68-35.07-11.44-3.38-23.59-4.47-35.46-5-5.29-.26-10.58-.4-15.86-.72-1.05-.07-7.5-1.36-8.34-.7,1-.81,5.2.85.2,0-1.53-.26-3-.57-4.56-.9l-13.29,48.22A1496,1496,0,0,0,398,336.18c12.39.83,23-10.15,24.55-21.68.72-5.32,0-11.28-3-15.94-3.77-5.85-8.58-8.82-14.94-11.49L373.39,274,366,270.88a17.87,17.87,0,0,0-3.68-1.55c1,.15,4.29,2,1.47.6-2-.95-3.83-2.06-5.76-3.12-2.68-1.47,4.05,3.18,1.82,1.21-1.85-1.63,3.2,5.1,1.19,1l-21.58,37.62a715.57,715.57,0,0,1,77.21-2.29c10.52.25,21.73-7.91,24.11-18.36s-1.42-23-11.49-28.23c-8.48-4.37-16.35-6.11-25.8-6.93-2.76-.23-5.53-.29-8.29-.4-1.39-.06-2.78-.19-4.17-.22-5.51-.11,5.38,1.44.09.07-1.18-.31-2.37-.55-3.54-.92-4.51-1.4.64-.38,1.2.66-.36-.67-2.58-1.36-3.23-1.75-3.36-2-.46-.5.86,1-.95-1.06-2.26-1.94-3.26-3-.67-.68-3.45-4.09-.92-.8s-.22-.54-.54-1.08a39,39,0,0,1-2-3.91l-21.59,37.62a525.35,525.35,0,0,0,73.68,2.05c10.62-.46,21.61-7.41,24.11-18.36,2.62-11.53-2.06-21.53-11.49-28.23-14.28-10.15-33.08-12.33-50.13-11.4-7.48.41-14.93,1.34-22.42,1.54-2.75.08-9.85,1-12.27-.45q5.23.75,2.37.21c-.85-.15-1.7-.34-2.54-.56a51,51,0,0,1-6.59-2.21l17.47,30.75q1-3.79-1.32,2.32a15,15,0,0,1,1.26-2.16q-4.08,5-1.43,2.2l1-.86q-5.07,3.78-1.84,1.6c.77-.48,1.55-.93,2.36-1.34s1.64-.83,2.48-1.21l-3.41,1.45c3.22-.4,6.95-2.38,10.09-3.34,4.52-1.38,9.05-2.75,13.59-4.08,8.47-2.48,17-4.8,25.59-6.74,4.3-1,8.61-1.83,12.95-2.57,1.44-.25,8.59-1.58,1.74-.37,2.47-.44,5-.58,7.51-.82,6.76-.63,12.72-2.36,17.67-7.32,4.34-4.33,7.61-11.45,7.33-17.68-.56-12.5-11.06-26.3-25-25-22.75,2.12-44.69,7.36-66.53,13.9-21.29,6.38-46.41,14-52.22,38.73-1.45,6.18-1,13.76,2.52,19.26,3.75,5.82,8.57,8.92,14.94,11.49,15.91,6.43,33.35,4.87,50,3.59,3.16-.25,6.33-.45,9.51-.51,1.86,0,3.72,0,5.58,0,1.22.05,4.53.9,5.54.39l-3.53-.48c1,.16,2,.36,3.06.58,1.52.33,3,.78,4.48,1.19,4.86,1.33-4.33-2.57-.29-.21,1.8,1.05,3.57,2,5.27,3.24l12.62-46.58a525.35,525.35,0,0,1-73.68-2.05c-8.52-.84-17.47,5.35-21.59,12.38-4.85,8.28-3.85,16.91,0,25.24,6.89,14.88,20.58,25.57,35.71,31.12,7,2.58,14.74,3.2,22.15,3.53,3,.14,7,1.08,9.95.51l-3.42-.48c1.06.17,2.11.4,3.15.66l1.54.45q-5.17-2.43-1.53-.6l12.62-46.58a715.57,715.57,0,0,0-77.21,2.29c-19.49,1.63-30.34,19.82-21.59,37.62,7.17,14.59,22.8,19.76,36.68,25.58l36.8,15.43L398,286.18q-36.33-2.43-72.52-6.67-8.79-1-17.58-2.18c-1.3-.17-2.61-.31-3.9-.52,6,1,1.12.15-.18,0-2.93-.41-5.85-.82-8.77-1.25q-18.51-2.67-36.94-5.86c-6.79-1.16-13.11-1.08-19.26,2.52-5.19,3-10.13,9-11.49,14.94-2.87,12.59,3.79,27.81,17.46,30.76,11.61,2.5,23.47,3.35,35.31,3.83,5.29.22,10.57.41,15.84.89.7.06,3.14.71,3.71.38-.87.5-4.9-.83-1.12-.11,2.42.45,4.83.92,7.23,1.53,2,.53,4.06,1.12,6.06,1.79,1,.34,2,.69,3,1.06.74.28,4.24,1.69.68.22s-.1,0,.62.35c1,.46,1.9.93,2.83,1.41,2.1,1.1,4.17,2.28,6.18,3.53,1.79,1.12,3.51,2.33,5.24,3.54,2.74,1.91-.58-.14-1.3-1a19.15,19.15,0,0,0,2.43,2,92.5,92.5,0,0,1,9.94,10.15l24.32-41.78c-25.94-6.59-53-7.66-79.6-9.55l-78.71-5.6c-12.38-.88-23,10.19-24.55,21.68-1.62,12,5.79,24.25,17.91,27.43,20.35,5.34,40.95,8.75,61.56,12.81,4.14.82,8.26,1.72,12.33,2.82,2.12.57,4.24,1.2,6.33,1.89.92.31,1.84.62,2.75,1,3.76,1.36.41.22-1.28-.66a100.44,100.44,0,0,1,10.54,5.73c3.38,2.3-.11.32-1.15-1a19.56,19.56,0,0,0,2.1,1.85c1.49,1.4,6.36,7.44,1.74,1.31L335,335.09c-7.88-6.12-15.31-10.63-24.94-13.67-7.72-2.44-16-3.34-24-4-15.13-1.25-30.48-1-45.64-.4-31.69,1.17-63.21,4.85-94.68,8.52-12.51,1.46-22.78,8.4-24.56,21.68-1.49,11.1,5.6,25.54,17.91,27.43,14.73,2.25,29.53,3.94,44.36,5.45,6.47.66,12.94,1.3,19.41,2,3.37.37,6.73.75,10.09,1.16,1.68.2,3.36.46,5,.63-7.33-.72-1.38-.18,0,0a278.19,278.19,0,0,1,37.48,7.75c6.36,1.84,12.4,4.38,18.65,6.5l-2.94-1.22c1,.44,2,.89,3,1.36q2.25,1.05,4.46,2.17c3,1.51,5.87,3.14,8.74,4.84l19.26-45.7c-67.59-18.44-138.24-21.14-207.18-9.19l13.29,48.22c3.73-.71,7.47-1.43,11.22-2.05l2.81-.46c1.9-.28,1.25-.21-2,.23.71.34,4.84-.54,5.67-.61a118.36,118.36,0,0,1,21.95.29c1,.09,1.9.2,2.85.32-3.15-.44-3.79-.52-1.89-.24s3.79.61,5.68,1c3.47.63,6.93,1.36,10.36,2.15,7.44,1.71,14.81,3.68,22.14,5.74q20.91,5.91,41.35,13.33,10.65,3.87,21.15,8.15c1.75.71,3.52,1.39,5.24,2.16l-2.49-1.05,3.47,1.49q5.2,2.26,10.36,4.61l6-45.69a67.14,67.14,0,0,1-10.76,3.28c-.84.18-1.68.34-2.53.49q-3.36.52-.09,0c2.18-.29,2.15-.31-.11-.07-1.15.1-2.31.17-3.46.22a141.39,141.39,0,0,1-21.08-.85c-3.49-.36-7.14-.58-10.57-1.28,6.75,1.38,1.3.18-.35,0q-5.64-.76-11.29-1.51-12.1-1.55-24.26-2.63a641.25,641.25,0,0,0-97.51-1.14c-13,.84-25.63,10.91-25,25,.57,12.83,11,25.9,25,25Z"/><path class="cls-3" d="M74.32,407.43a911.28,911.28,0,0,1,108.27-6.52c17.35,0,34.73.35,52,2.31,18.63,2.11,36.86,6.58,55,11.07,1.56.38,2.23-2,.66-2.41-17.15-4.24-34.33-8.45-51.88-10.7-17.83-2.29-35.85-2.74-53.81-2.77a912.84,912.84,0,0,0-110.25,6.52c-1.58.19-1.6,2.69,0,2.5Z"/><path class="cls-3" d="M84.92,380.06q54.65-1.83,109.32.38c18,.74,36,1.77,54,3.23a122.79,122.79,0,0,1,27.39,4.88c7.46,2.35,14.74,4.91,22.58,5.63,1.6.15,1.59-2.35,0-2.5-8.8-.81-16.89-4.16-25.31-6.58-8.05-2.32-16.33-3.25-24.66-3.93-18-1.46-36-2.49-54-3.23q-54.63-2.25-109.32-.38c-1.6.05-1.61,2.55,0,2.5Z"/><path class="cls-3" d="M104.69,359c66,1.63,134-3.54,197.16,19.47,1.51.55,2.17-1.87.66-2.42C239.14,353,170.88,358.11,104.69,356.47a1.25,1.25,0,0,0,0,2.5Z"/><path class="cls-3" d="M129.2,338.3a81.21,81.21,0,0,1,36.33,6.93c1.46.64,2.73-1.51,1.26-2.16a83.85,83.85,0,0,0-37.59-7.27c-1.61.07-1.62,2.57,0,2.5Z"/><path class="cls-3" d="M296.2,355.2a66.65,66.65,0,0,1,25.63,2.95c1.53.49,2.19-1.93.66-2.41a68.26,68.26,0,0,0-26.29-3c-1.6.13-1.61,2.63,0,2.5Z"/><path class="cls-3" d="M321.14,331.21h30a1.25,1.25,0,0,0,0-2.5h-30a1.25,1.25,0,0,0,0,2.5Z"/><path class="cls-3" d="M334.05,307.71a167.89,167.89,0,0,0,35.46,5.17c1.61.06,1.6-2.44,0-2.5a164.8,164.8,0,0,1-34.79-5.08,1.25,1.25,0,0,0-.67,2.41Z"/><path class="cls-3" d="M357.23,293q28.2,3.18,56.58,3.84a1.25,1.25,0,0,0,0-2.5q-28.38-.66-56.58-3.84c-1.6-.18-1.58,2.32,0,2.5Z"/><path class="cls-3" d="M358.31,267l82.47.62a1.25,1.25,0,0,0,0-2.5l-82.47-.62a1.25,1.25,0,0,0,0,2.5Z"/><path class="cls-3" d="M352.2,251.28h83a1.25,1.25,0,0,0,0-2.5h-83a1.25,1.25,0,0,0,0,2.5Z"/><path class="cls-3" d="M349.15,232.63q45.93-3.23,91.72-8.06c1.58-.17,1.6-2.67,0-2.5q-45.78,4.85-91.72,8.06c-1.59.11-1.6,2.61,0,2.5Z"/><path class="cls-4" d="M109.46,423.42c1.76-12.93,10.16-23.58,17.6-33.85,8.16-11.26,17.24-20.61,28.9-28.26a324.25,324.25,0,0,1,35-19.81c11-5.43,22.61-9.9,32.18-17.84,1.23-1-.54-2.79-1.77-1.77-10.78,9-24.42,13.69-36.78,20S160.16,355,149,363c-10.11,7.36-17.94,16.62-25.19,26.73s-15.09,20.38-16.8,33c-.22,1.58,2.19,2.26,2.41.67Z"/><path class="cls-5" d="M70.76,432.13c1.75-50.47,39.62-91.57,87.43-104.1a142.81,142.81,0,0,1,36.3-4.31c12.79,0,25.49.26,38.07-2.4a109.36,109.36,0,0,0,83.86-82.72c.33-1.44,3.84-19.29,2.71-19.64,3.09.94,4.4-3.88,1.33-4.82-3.75-1.14-5.82,2.13-6.41,5.45-1.12,6.42-1.27,12.87-2.82,19.26a106.13,106.13,0,0,1-15.5,34.85,104.44,104.44,0,0,1-61.33,42.08c-13.8,3.36-27.71,2.84-41.8,2.94a144.53,144.53,0,0,0-35.74,4.49c-23.53,6.18-45.61,18.85-61.86,37.09a114.49,114.49,0,0,0-29.24,71.83c-.11,3.22,4.89,3.21,5,0Z"/><path class="cls-5" d="M70.5,431.66c38.58-1,77.43-3.48,116-2.43a237.91,237.91,0,0,1,30.16,2.53c8.58,1.34,16.95,3.6,25.45,5.28,18.07,3.57,35,.79,52.71-3.27,3.14-.72,1.81-5.54-1.33-4.82-9.49,2.17-19.05,4.39-28.8,4.95-9,.51-17.81-.87-26.6-2.83a270.41,270.41,0,0,0-53.53-6.88c-38-.83-76.13,1.46-114.08,2.47-3.21.09-3.22,5.09,0,5Z"/><path class="cls-5" d="M298.43,431.75c6.74-38.1,30-72.66,63.21-92.68,18.89-11.37,39.95-18.13,57.61-31.67,15.22-11.68,31.6-27.19,34.21-47.09,3.05-23.13-.9-47.93,12.33-68.59,1.74-2.72-2.59-5.23-4.32-2.53-11,17.13-11.07,37.79-12,57.43-.56,11.89-1.63,22.75-8.93,32.59a125.59,125.59,0,0,1-23,23.23c-18,14.16-39.75,20.91-59.08,32.71a141.45,141.45,0,0,0-64.86,95.27c-.56,3.14,4.26,4.49,4.82,1.33Z"/><path class="cls-5" d="M315.48,218.72q70.93-18.22,142.39-34.39c3.14-.71,1.81-5.54-1.33-4.83q-71.43,16.17-142.39,34.4c-3.12.8-1.8,5.62,1.33,4.82Z"/><path class="cls-6" d="M163.08,120.64c-14.09,22.64-24,47.1-31.58,72.61-3.09,10.46-6.09,21-9.8,31.23q-1.5,4.16-3.14,8.26c-.38.95-.76,1.89-1.15,2.84l1.3-3.09c-.92.88-1.39,3.19-1.95,4.42-3.19,7.05-6.73,13.93-10.48,20.69a25.13,25.13,0,0,0,6.43,32.25c10.5,8.1,23,6,32.83-2a59.39,59.39,0,0,0,14.4-16.46c1-1.81,1.86-3.71,2.82-5.55,1.26-2.4,3.26-4.61,4.35-7-.25.54-3.86,4.73-.92,1.22.63-.75,1.24-1.5,1.86-2.25q2.08-2.52,4.16-5.06c2.53-3.12,5-6.26,7.53-9.41,5.3-6.72,10.53-13.5,15.6-20.39,12.72-17.27,23.89-35.55,36-53.24q6.13-9,12.59-17.74,3.57-4.84,7.21-9.62l2.09-2.73c2.07-2.71-2.81,3.58-.62.81,1.77-2.23,3.52-4.48,5.29-6.72l-39.27-30.29c-16,27.76-29.48,56.54-41.74,86.1-5.28,12.74-10.36,25.57-15.58,38.33q-2.07,5.06-4.17,10.1c-.41,1-.83,2-1.24,3q2.21-5.22.62-1.46c-.66,1.53-1.31,3.07-2,4.6q-5.31,12.36-10.91,24.59c-2.87,6.27-4.42,12.36-2.52,19.26,1.59,5.8,6.08,12.09,11.49,14.94,11.83,6.26,27.33,3.2,34.2-9a356.37,356.37,0,0,1,24.95-37.82q1.83-2.45,3.68-4.87l-1.22,1.59c.72-.93,1.44-1.85,2.17-2.77q3.57-4.51,7.23-9,7.66-9.33,15.61-18.41c20.55-23.52,42.25-46,63.41-69l-39.26-30.3c-31.1,48.86-67.67,94.3-95,145.5a472.37,472.37,0,0,0-23.11,50.51c-2.13,5.44-.57,14.47,2.52,19.26a25.75,25.75,0,0,0,12,10.23c12.24,5.17,23.7-.06,31.21-10.23q4.45-6,9-12l4.56-6c3.16-4.14-2.8,3.58.7-.9q8.74-11.17,17.64-22.22,18-22.18,36.57-43.84C284,224.88,309.2,196.57,334.11,168l-39.27-30.29c-28.94,46.79-57.61,94-82.34,143.19q-10.69,21.29-19.76,43.27c-4,9.71,2.59,23.53,11.48,28.23a29.62,29.62,0,0,0,12.62,3.42c5.53.24,14.13-2.83,17.68-7.33,21.53-27.21,41.3-55.7,61.75-83.71q7.44-10.2,15.06-20.26c.84-1.1,5.58-7.52,1.36-1.8,1-1.39,2.11-2.73,3.18-4.08q4-5.06,8-10a447,447,0,0,1,32.72-36.33L317.35,162c-18.41,24.44-36.83,48.87-54.53,73.83-17.11,24.12-33.5,48.64-42.6,77.06-3.23,10.1,2.05,23.25,11.49,28.24A25.91,25.91,0,0,0,262,337.21q51-47.44,99.38-97.56c7.44-7.7,9.95-20.92,3.91-30.29-5.55-8.62-17.78-15.65-28.23-11.49a49.88,49.88,0,0,0-21.23,15.25c-5.11,6.22-10.05,12.59-14.9,19q-12,15.95-22.66,32.92c-14.85,23.74-27.09,48.77-37.74,74.65-4,9.71,2.59,23.53,11.49,28.23,9.16,4.84,23.15,4.82,30.3-3.91a180.18,180.18,0,0,1,21.37-21.78c4.06-3.53,8.24-6.9,12.46-10.24,2.55-2-.18.19-1.22.94,1.09-.79,2.15-1.65,3.22-2.46,2.15-1.63,4.32-3.25,6.49-4.87,17.9-13.35,36.23-26.46,51.84-42.53,9.12-9.38,10-26.13,0-35.35-9.86-9.05-25.62-10-35.36,0a242.51,242.51,0,0,1-22.86,20.47l-3.18,2.51c-2.43,1.92,4.2-3.19.56-.44-2.15,1.63-4.31,3.27-6.47,4.89l-12.37,9.22c-17.81,13.34-35.66,27-49.84,44.29L288.74,353c.11-.25,2.32-5.61.8-1.93s.52-1.18.84-1.91c1.19-2.71,2.4-5.42,3.64-8.11q3.72-8.06,7.75-16,8.25-16.23,17.81-31.76,9.3-15.13,19.76-29.51,2.63-3.6,5.3-7.13c1.94-2.55,1.5-2.29-.12.13.82-1.22,1.84-2.34,2.75-3.49,1.82-2.28,3.64-4.56,5.52-6.78.81-1,1.72-1.84,2.51-2.81l1.08-1a11.82,11.82,0,0,1-6,3.39L326,204.3q-48.39,50.08-99.38,97.55l41.78,24.33c1.08-3.35,2.27-6.65,3.54-9.93,1.84-4.76-2.19,4.49.23-.48.64-1.32,1.23-2.66,1.87-4,2.94-6.07,6.23-12,9.73-17.74,7.21-11.9,15.27-23.27,23.33-34.6,17.35-24.4,35.37-48.32,53.39-72.23,3.5-4.64,4.25-13.92,2.52-19.26a25.83,25.83,0,0,0-9-13,25,25,0,0,0-32.82,2c-24.63,24.27-45.7,52-66.1,79.81-9.92,13.53-19.63,27.2-29.45,40.8q-7.2,10-14.5,19.84-3.47,4.65-7,9.28l-2,2.6q3.38-4.35.92-1.19-2,2.55-4,5.08L241,337.47a12.21,12.21,0,0,0,.71-1.72c.55-2.41-1.41,3.32-1.3,3.07.63-1.36,1.19-2.77,1.8-4.14q1.88-4.31,3.85-8.56,4-8.72,8.34-17.33c6.19-12.43,12.7-24.7,19.38-36.87,13.56-24.73,27.83-49.06,42.41-73.2Q327,180.78,338,163c6.57-10.62,3.12-24.86-6.44-32.25-9.26-7.15-24.61-7.46-32.83,2-51.61,59.17-104.28,117.51-151,180.73l45.69,19.26c.88-2.22,1.78-4.43,2.67-6.65q1.58-3.83-.46,1.05c.46-1.09.93-2.17,1.4-3.25q2.82-6.42,5.85-12.75c4-8.29,8.24-16.45,12.71-24.49,8.82-15.82,18.49-31.14,28.55-46.21,20.53-30.76,42.49-60.55,62.36-91.76,6.7-10.53,3-24.94-6.44-32.25s-24.34-7.26-32.83,2C223.56,165.76,175.62,212,143.63,268.64l43.17,25.23c13.33-29.1,25-58.86,37.21-88.44q.94-2.3,1.9-4.57c2.65-6.38-1.53,3.52.23-.56q2-4.61,4-9.2,4.19-9.49,8.66-18.87c7.1-14.83,14.84-29.33,23-43.58a25.09,25.09,0,0,0-6.44-32.25c-8.92-6.89-25.08-7.82-32.83,2-17.1,21.58-33.08,43.77-48.1,66.83-5.75,8.83-11.55,17.62-17.67,26.19-3.73,5.23-7.67,10.3-11.46,15.47.29-.4,3.7-4.75,1.07-1.39l-1.48,1.89q-1.8,2.28-3.61,4.55-3.94,4.93-8,9.81c-5.6,6.8-11,13.52-15,21.41-1,2-2.17,3.83-3.29,5.75-1.38,2.36,4.12-4.58,2-2.63-.59.54-1.1,1.2-1.67,1.76a65.82,65.82,0,0,1-5.17,4.54l39.27,30.29c13-23.4,22-48.21,29.54-73.81,3.06-10.44,6.24-20.85,10.26-31,.57-1.46,2.81-6.23-.31.6.62-1.36,1.19-2.75,1.81-4.12q2-4.31,4.08-8.53c3.49-6.89,7.34-13.58,11.42-20.13,6.92-11.13,2.74-28-9-34.21-12.26-6.48-26.82-2.9-34.2,9Z"/><path class="cls-5" d="M150,237.77l13.07,25.14a2.51,2.51,0,0,0,3.42.9q10.47-8,20.51-16.47a2.51,2.51,0,0,0,.39-3l-17.06-22.7a2.55,2.55,0,0,0-3.42-.9,107.67,107.67,0,0,0-17.23,13.22c-2.34,2.21,1.2,5.74,3.54,3.53A100.83,100.83,0,0,1,169.47,225l-3.42-.9,17,22.7.39-3Q174,251.92,164,259.49l3.42.9-13.06-25.15c-1.48-2.85-5.8-.33-4.32,2.53Z"/><path class="cls-5" d="M251.62,231.13q-6,9.47-11.6,19.22a2.53,2.53,0,0,0,.89,3.42l18,10.38a2.54,2.54,0,0,0,3.42-.9l6.46-10.85c1.74-2.91,4.12-6,5.06-9.24a2.51,2.51,0,0,0-.65-2.43c-2.21-2.24-5.3-3.55-8-5.12l-10-5.83c-2.79-1.63-5.31,2.69-2.53,4.32L261,239c2.75,1.61,6.4,3,8.65,5.31l-.65-2.43c-1,3.34-3.77,6.75-5.54,9.71L258,260.73l3.42-.9-18-10.38.89,3.42q5.56-9.75,11.61-19.22c1.73-2.72-2.59-5.23-4.32-2.52Z"/><path class="cls-5" d="M231.2,184.24l3.17,12.13a2.52,2.52,0,0,0,3.07,1.75l10.31-4.2c1.77-.72,4.36-1.31,5.39-3.1s.32-4.28-.16-6.18a48.76,48.76,0,0,0-3.22-8.77,2.5,2.5,0,0,0-2.82-1.15,120.36,120.36,0,0,1-14.5,5c-3.1.84-1.79,5.67,1.33,4.82a121.32,121.32,0,0,0,14.49-5l-2.82-1.15a41.79,41.79,0,0,1,2.05,5.17c.64,2.05,1.58,3.85-.43,5.27-1.39,1-3.57,1.45-5.15,2.09l-5.8,2.36,3.08,1.75L236,182.91c-.82-3.11-5.64-1.79-4.82,1.33Z"/><path class="cls-5" d="M160,229.26a44.5,44.5,0,0,0-3.89,16.24c-.11,2.36,3.65,3.56,4.66,1.26A67.48,67.48,0,0,1,170.34,231l-3.92-3a72.23,72.23,0,0,0-5.71,19.74,2.51,2.51,0,0,0,4.56,1.93l9.52-12.7-4.32-2.53A102.93,102.93,0,0,0,163.63,254c-.53,2.21,2.53,4.54,4.17,2.43a82.21,82.21,0,0,0,9.46-15.16c1.37-2.86-2.75-5.37-4.32-2.52a31.64,31.64,0,0,0-3.66,10.47c-.35,2.23,2.35,4.49,4.18,2.44a48.59,48.59,0,0,0,6.17-8.56L175,241.81a14.33,14.33,0,0,0,.52,3.8c.79,3.12,5.62,1.79,4.83-1.33l-.35-2.47c-.07-2.42-3.41-3.47-4.66-1.26a42.11,42.11,0,0,1-5.38,7.55l4.18,2.43a27.58,27.58,0,0,1,3.15-9.28l-4.32-2.52a76.79,76.79,0,0,1-8.67,14.15l4.18,2.43a95.43,95.43,0,0,1,6.34-18.39,2.5,2.5,0,0,0-4.32-2.53L161,247.09l4.57,1.93a68.42,68.42,0,0,1,5.2-18.55c1.05-2.35-2-5.42-3.92-3a72.14,72.14,0,0,0-10.33,16.79l4.66,1.27a37.59,37.59,0,0,1,3.2-13.72c1.29-2.91-3-5.46-4.31-2.52Z"/><path class="cls-5" d="M182.93,159.7l20.95,19.08a2.54,2.54,0,0,0,3.93-.5q6.91-10.83,13.21-22a2.56,2.56,0,0,0-.9-3.42l-23.85-15.41a2.51,2.51,0,0,0-3,.39,106.94,106.94,0,0,0-11.64,18.33c-1.44,2.87,2.88,5.41,4.31,2.52a101.24,101.24,0,0,1,10.87-17.31l-3,.39,23.85,15.4-.9-3.42q-6.3,11.19-13.21,22l3.93-.5-20.95-19.08c-2.38-2.16-5.92,1.36-3.54,3.53Z"/><path class="cls-5" d="M189.51,148.87a43,43,0,0,0,1.94,15.94,2.51,2.51,0,0,0,4.91-.67,67.42,67.42,0,0,1,3.6-18l-4.91-.66a72.86,72.86,0,0,0,1.59,20.51c.55,2.5,4.14,2.26,4.82,0L206,150.73l-4.91-.66a98.58,98.58,0,0,0,.37,20.1c.33,2.7,4,3.52,4.91.66a82.56,82.56,0,0,0,3.53-17.54c.26-2.78-4.49-3.46-4.91-.67a33.49,33.49,0,0,0,.22,11.77c.52,2.68,4,2.05,4.82,0a45.09,45.09,0,0,0,2.64-9.55h-4.83a13.55,13.55,0,0,0,1.75,3.38c1.81,2.64,6.14.14,4.31-2.52l-1.23-2.19c-.8-2-4.38-2.73-4.83,0a44.89,44.89,0,0,1-2.63,9.56H210a25.65,25.65,0,0,1-.22-9.12l-4.91-.66a76.56,76.56,0,0,1-3.35,16.21l4.91.67a98.58,98.58,0,0,1-.37-20.1c.24-2.89-4.13-3.28-4.91-.67l-4.54,15.21h4.82a67.91,67.91,0,0,1-1.41-19.18c.2-3-4-3.21-4.91-.67a72.44,72.44,0,0,0-3.78,19.38l4.91-.66a39.3,39.3,0,0,1-1.76-14.61c.2-3.22-4.8-3.2-5,0Z"/><path class="cls-5" d="M232.81,186A13.14,13.14,0,0,0,237,192.5c1.45,1.22,4.55.6,4.27-1.77a52.73,52.73,0,0,0-1.62-8.34l-4.17,2.44a83.47,83.47,0,0,1,7,7.59c1.34,1.66,4.43.32,4.27-1.76a58.26,58.26,0,0,0-1.16-7.77l-4.18,2.44,3.77,4.32c1.51,1.74,4.17.25,4.27-1.77A34.11,34.11,0,0,0,249,181l-2.41,3.17-.84-.6c1.88,2.57,6.23.08,4.32-2.52a3.77,3.77,0,0,0-3.48-1.88,2.54,2.54,0,0,0-2.41,3.16,27.53,27.53,0,0,1,.24,5.59l4.26-1.76-3.76-4.33c-1.74-2-4.68.17-4.18,2.43a48.38,48.38,0,0,1,1,6.44l4.26-1.77a82.16,82.16,0,0,0-7-7.6,2.52,2.52,0,0,0-4.18,2.43,44.26,44.26,0,0,1,1.44,7l4.27-1.77a8.42,8.42,0,0,1-2.89-4.34c-.89-3.09-5.72-1.78-4.82,1.33Z"/><path class="cls-5" d="M340.43,248.43l-6.93,10.46a2.52,2.52,0,0,0,.89,3.42l9.72,4.74c1.73.85,3.9,2.37,5.92,2.05,4.41-.7,7.35-8.53,8.84-12,.5-1.16.43-2.78-.9-3.42a119.82,119.82,0,0,1-13.36-7.5c-2.71-1.76-5.22,2.57-2.52,4.32a121.44,121.44,0,0,0,13.36,7.5l-.9-3.42c-1.05,2.44-3.28,9.17-6.53,8.84-1.64-.17-4-2-5.55-2.72L336.92,258l.89,3.42L344.74,251c1.79-2.69-2.54-5.2-4.31-2.53Z"/><path class="cls-5" d="M340.23,250.78a13.24,13.24,0,0,0-2.05,7.52c.05,2.05,2.77,3.45,4.27,1.77a53.36,53.36,0,0,0,5.09-6.76l-4.66-1.26a77.21,77.21,0,0,1-.93,9.6c-.37,2.28,2.3,4.4,4.18,2.43a57.46,57.46,0,0,0,5-6l-4.66-1.26-.71,5.69c-.31,2.41,2.81,2.94,4.26,1.77a29.52,29.52,0,0,0,4.45-4.42h-3.53l-.24-1c-.67,3.14,4.15,4.48,4.82,1.33a3.81,3.81,0,0,0-1.05-3.84,2.5,2.5,0,0,0-3.53,0,30.41,30.41,0,0,1-4.45,4.41l4.27,1.77.71-5.69c.35-2.73-3.4-3-4.66-1.26a46.72,46.72,0,0,1-4.19,5l4.18,2.44a89.15,89.15,0,0,0,1.11-10.93c.09-2.57-3.39-3.27-4.66-1.26a43.89,43.89,0,0,1-4.31,5.74l4.27,1.77a8.44,8.44,0,0,1,1.36-5c1.71-2.74-2.62-5.25-4.31-2.52Z"/><path class="cls-5" d="M246,245.69a15.68,15.68,0,0,0-1.2,9.28c.39,2.46,4.32,2.31,4.82,0l3-13.75-4.91-.67.51,13.74c.1,2.69,4.32,3.54,4.91.66l3.49-17-4.91-.66a118.1,118.1,0,0,0-.27,16.4,2.51,2.51,0,0,0,4.91.66,146.86,146.86,0,0,0,4.95-19.63l-4.91-.66L254.86,254c-.2,2.77,4.43,3.45,4.91.66a126.6,126.6,0,0,1,3.14-13.58l-4.91-.66-.54,12.12h5a59.54,59.54,0,0,1,1.76-12.25l-4.91-.66a40.76,40.76,0,0,0,1,8.87c.52,2.27,3.41,2.22,4.57.59a9.74,9.74,0,0,0,1.79-5.07l-4.91.66.3,1.31c.32,1.45,2.4,2.46,3.67,1.5a5.21,5.21,0,0,0,2.41-3.59c.51-3.15-4.31-4.5-4.82-1.33l-.12.6,3.68,1.49-.3-1.31c-.66-3-4.63-2-4.91.67a4.23,4.23,0,0,1-1.1,2.55l4.57.6a34.17,34.17,0,0,1-.84-7.54c0-2.78-4.22-3.45-4.91-.67a66.28,66.28,0,0,0-1.94,13.58c-.13,3.22,4.85,3.21,5,0l.54-12.12c.13-2.87-4.13-3.33-4.91-.67A124.23,124.23,0,0,0,255,253.32l4.91.67,1.48-19.94c.21-2.78-4.41-3.45-4.91-.67a146.86,146.86,0,0,1-5,19.63l4.91.67a118.1,118.1,0,0,1,.27-16.4c.24-2.8-4.35-3.43-4.91-.67l-3.49,17,4.91.67-.51-13.74c-.1-2.7-4.28-3.52-4.91-.66l-3,13.75h4.82a9.46,9.46,0,0,1,.69-5.43c1.28-2.92-3-5.47-4.31-2.52Z"/><path class="cls-5" d="M215,317.51q5.1,10,10.7,19.74a2.53,2.53,0,0,0,3.42.89l18.07-10.28a2.53,2.53,0,0,0,.9-3.42L242,313.37c-1.64-3-3.06-6.55-5.42-9a2.5,2.5,0,0,0-2.43-.64c-3,.77-5.74,2.79-8.47,4.32l-10.08,5.66c-2.8,1.57-.29,5.89,2.52,4.32l8.41-4.72c2.78-1.57,5.85-4,9-4.76l-2.43-.64c2.4,2.51,3.9,6.68,5.57,9.71l5.14,9.37.9-3.42-18.07,10.28,3.42.89Q224.4,325,219.29,315c-1.46-2.86-5.78-.34-4.32,2.53Z"/><path class="cls-5" d="M224.66,329.77a15.63,15.63,0,0,0,7.36,5.69c2.36.92,4.18-2.56,2.43-4.18l-10.34-9.55-3,3.93,12.1,6.51c2.41,1.3,5.22-2,3-3.93L223.3,316.63l-3,3.92a118.24,118.24,0,0,0,14,8.54,2.51,2.51,0,0,0,3-3.93A147.55,147.55,0,0,0,222.9,311l-3,3.93,16.44,11.37c2.31,1.6,5.2-2.09,3-3.93a123.76,123.76,0,0,1-10.12-9.58l-3,3.93,10.17,6.6,2.53-4.31a60.28,60.28,0,0,1-9.69-7.74l-3,3.92a40.29,40.29,0,0,0,8.14,3.61c2.28.73,3.65-1.84,2.82-3.68a9.73,9.73,0,0,0-3.45-4.07l-1.92,4.57L233,316c1.42.45,3.35-.81,3.17-2.41a5.23,5.23,0,0,0-1.9-3.92c-2.46-2-6,1.48-3.53,3.54l.43.38,3.16-2.41-1.28-.41c-2.89-.93-4.05,3-1.92,4.57a4.44,4.44,0,0,1,1.66,2.28l2.82-3.67a34.65,34.65,0,0,1-6.95-3.11c-2.44-1.41-5.07,1.92-3,3.93a66.5,66.5,0,0,0,10.7,8.52c2.72,1.75,5.22-2.57,2.53-4.31l-10.18-6.61c-2.44-1.59-4.93,1.91-3,3.93a127.19,127.19,0,0,0,10.12,9.58l3-3.93-16.44-11.37c-2.32-1.6-5.19,2.08-3,3.93a147.66,147.66,0,0,1,14.42,14.21l3-3.93a117.72,117.72,0,0,1-14-8.54c-2.31-1.63-5.13,2-3,3.93l12.9,11.62,3-3.93-12.1-6.51c-2.42-1.3-5.18,1.93-3,3.93l10.33,9.54,2.44-4.17a9.47,9.47,0,0,1-4.38-3.39c-1.87-2.58-6.21-.09-4.31,2.52Z"/><path class="cls-5" d="M112.84,259.27a20,20,0,0,0,3.59,23.43A30.57,30.57,0,0,0,126.6,289c4.06,1.66,5.33,2.76,6.92,6.89.89,2.33,1.43,4.2,3,6.19A23.16,23.16,0,0,0,146,308.6c1.8.74,4.24,1,5.88,2,3.07,1.85,3.28,6.54,4,9.69a58.11,58.11,0,0,0,10.51,22.33,33.38,33.38,0,0,0,22.94,12.75c4.86.49,10.33-1.36,15,0,3.35,1,6.12,3.84,9.75,4,2,.06,3.73-1.18,5.66-.92,2.11.27,3.66,2.45,5.52,3.56,4,2.39,8.84,3.08,13.44,2.89a66.54,66.54,0,0,0,13.14-2.18c3.18-.79,6.34-1.85,9.65-1.61,3.08.23,5.83,1.55,8.73,2.47a39.9,39.9,0,0,0,27.73-1.41,117.59,117.59,0,0,0,12-6.61c3.14-1.8,5.79-5.76,9.18-6.48,4-.85,7-1.06,10.42-3.67a22.2,22.2,0,0,0,7.79-12.54c1.09-4.54-.45-11.41,3.1-14.74,3.25-3,6.19-4.65,7.86-9.08s1.15-8.53,1.38-13c.19-3.54,1.64-4.71,4.43-6.57,1.86-1.24,3.74-2.44,5.56-3.75,6.81-4.89,13.18-11.76,16.75-19.4a33.37,33.37,0,0,0,0-28.21c-2.19-4.88-3.18-8.12-2.64-13.34a18.09,18.09,0,0,0,.16-4.09c-.33-2.46-2.16-3.49-3-5.63-1-2.63,1.2-6.29,1.45-9a22.68,22.68,0,0,0-.76-7.86c-1.6-6.05-5.15-11.43-8.64-16.52-2.37-3.45-4.42-6.52-4.82-10.79-.29-3.09,0-6.17-.45-9.25a39.62,39.62,0,0,0-15.36-26.33,19.37,19.37,0,0,1-6.58-8.53,25.17,25.17,0,0,0-3.86-6.22c-8.13-9.66-20.9-12.32-32.72-14.38l1.83,2.41c0-3.36-4.46-6.91-7.08-8.36a20.16,20.16,0,0,0-13.49-2,26.4,26.4,0,0,0-6.58,2.2c-2.8,1.32-5.18,3.74-8.05,4.8-3.51,1.28-6.46-1-9.95-1.35a17.59,17.59,0,0,0-8.32,1.29c-5.14,2-9.48,7.87-15.26,6.42-4.39-1.1-8.43-3.46-12.89-4.52-8.95-2.12-19-2.55-27.62,1a32.36,32.36,0,0,0-11.25,7.7c-3.73,4-5.42,9.58-9.25,13.32-2.31,2.26-5.78,2.95-8.2,5.09-1.51,1.33-1.72,2.85-2.61,4.53-1.84,3.44-4.59,3.22-7.65,4.76-8,4.07-11.93,13-15,20.93a47.23,47.23,0,0,1-2.95,7.3c-2,3.32-5,5.15-7.94,7.42a39.56,39.56,0,0,0-10.07,11.3,40,40,0,0,0-5.32,15.85c-.44,4,.17,7.43-1.85,11.08-1.37,2.47-3,4.6-3.9,7.32-4.32,12.73,1.42,25.73,6.81,37.13,1.37,2.91,5.69.37,4.32-2.52-4.8-10.14-10.26-21.94-6.31-33.28,1.59-4.56,5.35-7.62,5.68-12.6.39-5.88.5-11.07,2.92-16.59a34.71,34.71,0,0,1,9-12.28c3.69-3.22,8-5.4,10.64-9.69,4.66-7.61,5.44-17.09,12-23.7a16,16,0,0,1,5.68-3.85c2-.75,4.08-.84,5.81-2.16,2.81-2.15,2.56-5.91,5.4-8s5.69-2.8,8-5.47c3.09-3.61,4.66-8.22,7.85-11.78,7.07-7.9,16.87-10,27-9.08a49.32,49.32,0,0,1,11,2.12c4.1,1.34,8.41,4,12.71,4.45,4.87.49,7.71-3.4,11.54-5.72,3.33-2,6.95-3.42,10.9-2.52,2.35.53,4.47,1.85,7,1.82,5.61-.06,9.87-5.4,15-7.1a17,17,0,0,1,9.26-.61c1.76.42,8,3.08,8,5.35a2.52,2.52,0,0,0,1.84,2.41c10.64,1.86,22.56,3.9,30,12.52,3,3.48,3.43,8.05,6.18,11.51,3.16,4,8.15,6.12,11.4,10.18a35.09,35.09,0,0,1,6.42,12.67c1.42,5.16.65,10.34,1.56,15.52,1.8,10.34,11.81,17.17,13.75,27.72a17,17,0,0,1-.88,8.93,9.68,9.68,0,0,0-.77,4.77c.56,3.52,3.51,5,3.29,8.86-.2,3.62-.88,6.63.3,10.23,1.8,5.46,4.87,10.06,5.36,16,.89,10.72-4.9,19.7-12.17,27a50.23,50.23,0,0,1-7.57,6.07c-2.91,2-7,3.8-8.95,6.84s-1,6.9-1.07,10.4c-.15,5.62-1.62,9.53-6.11,13-2.87,2.21-4.75,4.2-5.3,7.9-.78,5.23,0,10.06-2.53,15a13.82,13.82,0,0,1-12.45,8c-4.4.05-6.2,4.08-9.77,6.41-2.68,1.76-5.64,3.21-8.41,4.89a34.62,34.62,0,0,1-15.59,5,36.62,36.62,0,0,1-14.59-2.1c-4.15-1.41-7.84-2.61-12.29-2-9.46,1.31-20.06,6.69-29.39,1.76-3.11-1.64-5.15-4.87-9-4.81-2.16,0-4.1,1.37-6.29.88a19.76,19.76,0,0,1-4.05-2c-8.08-4.13-17.24-.15-25.79-3.09-10.06-3.45-16.6-12.88-20.36-22.41-2.71-6.89-1.84-17.77-9.79-20.81-4.89-1.87-10.47-3-13.51-7.75-2.5-3.93-1.86-8.51-6.15-11.31s-9.25-3.48-13.09-7a14.92,14.92,0,0,1-3.32-17.87C118.62,258.93,114.31,256.4,112.84,259.27Z"/><path class="cls-7" d="M174.74,85c-13.19,12.68-25.32,36.6-12.41,53.32a25.33,25.33,0,0,0,23.92,9.57c5.7-.77,10.58-3.52,15.53-6.32l19.07-10.79-30.3-3.91.53.57-7.32-17.68c.11-1.15-.18-6.47,1.39-7.08-.45.17-1.71,3.19-2.07,3.8-1.38,2.4-2.84,4.75-4.28,7.11l-9.2,15.09c-6.82,11.19-2.82,28,9,34.21,12.16,6.43,26.93,3,34.2-9,11-18.07,31.74-42.49,13.14-62.41-7.62-8.14-20.87-9.24-30.3-3.91l-12.13,6.87-5.2,2.94c-1.47.84-9.54,4.79-2,1.81h13.3l-1-.15,14.94,11.48-.24-.44,3.41,12.61c-.16,7.54-.59,4.52.11,1.58q1.06-3-.15,0t.1.1l.81-1.4q2.24-3.32-1,1c0-.87,3-3.23,3.53-3.71,9.44-9.08,9.81-26.35,0-35.36-10.15-9.31-25.28-9.68-35.36,0Z"/><path class="cls-7" d="M270.42,79.34c-9.63,7.2-18,15-23.85,25.7a25.2,25.2,0,0,0,2,27.76c5.89,7.63,16.72,12,26.28,9,12.24-3.9,24.66-7.22,37.08-10.51L287.57,89.47c-10.63,11.29-21.43,22.47-30.63,35-10.17,13.85-3.74,33.56,11.7,40.07,10.89,4.59,24.17.78,33.72-5.5,10.91-7.18,16.55-22.44,9-34.2-7-10.89-22.52-16.66-34.2-9a17.69,17.69,0,0,1-1.9,1.18q-2.48,1.36,2.53-.87l-1.48.52q-4,1,2,0l12.62,3.42-1.06-.7,11.49,14.94-.3-1.1v13.29a9.52,9.52,0,0,1-2.29,5q-1.82,2.34.33-.36c1-1.18,2-2.39,3-3.56q3.33-3.92,6.8-7.7c4.63-5.08,9.38-10.06,14.1-15.07,7.34-7.8,10-20.84,3.9-30.29S309.67,80.11,298.6,83c-12.42,3.29-24.84,6.6-37.09,10.51l28.24,36.72c.75-1.36,1.56-2.65,2.38-4,2.75-4.42-3.77,3.8,0,.06,1.16-1.15,2.22-2.38,3.42-3.49s5.38-4.27.12-.34c5.41-4,9.63-8.17,11.49-14.94,1.65-6,.9-14-2.52-19.27-6.66-10.33-23-17.34-34.21-9Z"/><ellipse class="cls-8" cx="191.55" cy="121.21" rx="37.62" ry="39.57"/><ellipse class="cls-8" cx="283.7" cy="121.21" rx="37.62" ry="39.57"/><path class="cls-5" d="M179.14,133.09c16.09,0,16.11-25,0-25s-16.11,25,0,25Z"/><path class="cls-5" d="M272.71,134.34c16.09,0,16.12-25,0-25s-16.11,25,0,25Z"/><path class="cls-5" d="M137,87.12c2.48-9.32,12-15.35,19.9-19.78a83.29,83.29,0,0,1,29.45-9.6c6.35-.87,3.65-10.5-2.66-9.64a90.19,90.19,0,0,0-34.79,12.33c-9.26,5.67-18.63,13.09-21.54,24-1.67,6.22,8,8.88,9.64,2.66Z"/><path class="cls-5" d="M268.28,55.06a93.18,93.18,0,0,1,33.44,5.08c9.44,3.3,21.06,7.89,19.89,19.79-.63,6.4,9.37,6.36,10,0C333,66,322.46,58,310.89,53a101.42,101.42,0,0,0-42.61-8c-6.42.18-6.44,10.18,0,10Z"/><path class="cls-5" d="M318.4,214.64c-1.76-3.29-3.58-7.08-3.76-10.9-.09-2,.22-4.55,1.73-6.09,2.6-2.67,5.86-1.44,5.46,2.35-.25,2.44,2.78,2.92,4.27,1.77q2.85-3.18,4.72,2.25a4.78,4.78,0,0,1-3.31,2.4c-1.05.5-2.17.86-3.23,1.37a38.57,38.57,0,0,0-7.69,5c-2.49,2,1.06,5.55,3.54,3.53,3.77-3.06,8-4,12.07-6.38a8.4,8.4,0,0,0,3.77-8,7.42,7.42,0,0,0-4.31-6.13c-3.44-1.48-6.38.27-9.1,2.38l4.27,1.76c.84-8-7.7-11.49-13.52-6.3-6.85,6.11-2.82,16.76.78,23.46,1.52,2.84,5.83.32,4.31-2.52Z"/><path class="cls-5" d="M317.81,199.13a9.36,9.36,0,0,1-.63,4.68c-1,2.51,2.49,3.93,4.17,2.43s4.79-3.37,3.69-6c-.92-2.18-4.19-2.58-6.18-3.24a2.51,2.51,0,0,0-3.08,1.75c-.5,2.88-1.91,6.7-1.17,9.62.8,3.16,3.85,3.39,6.39,2.23s14.37-9.1,7.08-11.4A2.5,2.5,0,0,0,325,201c-.39,2.55.71,4.83,3.35,5.49,3.12.78,4.45-4,1.33-4.82l.14.66L326.75,204l.3.09-1.75-1.75.12.32.26-1.93c-1.32,2.51-4.17,3.3-6.14,5l-.7.35.62,1s.21-1.73.24-1.89l.9-5.18-3.07,1.74c.69.23,3,.57,3.46,1.15l-.65-2.43c.17-.82-.4.26-.8.62l-1.72,1.53,4.18,2.43a12.59,12.59,0,0,0,.81-6c-.33-3.17-5.33-3.2-5,0Z"/></g></g></svg>